 <svg viewBox="0 0 24 24" xmlns="http://www.w3.org/2000/svg" width="34" height="34" fill="none"><style>@keyframes dribbble{0%{transform:translateX(-6px);animation-timing-function:ease-in;opacity:1}24%{opacity:1}40%,65%{transform:translateX(-6px);animation-timing-function:ease-in}82%{transform:translateX(-4px);animation-timing-function:ease-in}93%{transform:translateX(-2px);animation-timing-function:ease-in}25%,55%,75%,87%{transform:translateX(0);animation-timing-function:ease-out}to{transform:translateX(0);animation-timing-function:ease-out;opacity:1}}</style><path fill="#ffffff" d="M18.734 7.984a7.946 7.946 0 00-2.913-2.912A7.836 7.836 0 0011.806 4c-1.45 0-2.789.358-4.016 1.072a7.943 7.943 0 00-2.912 2.912A7.84 7.84 0 003.806 12c0 1.45.357 2.79 1.072 4.016a7.939 7.939 0 002.913 2.912A7.837 7.837 0 0011.806 20c1.45 0 2.789-.358 4.016-1.072a7.946 7.946 0 002.913-2.912A7.839 7.839 0 0019.805 12c0-1.45-.356-2.79-1.071-4.016zm-6.928-2.656c1.6 0 3.018.512 4.256 1.535-.736.94-1.829 1.712-3.28 2.32-.802-1.45-1.67-2.661-2.609-3.632a6.172 6.172 0 011.633-.223zM6.614 7.84a6.493 6.493 0 012.169-1.776c.97.96 1.86 2.16 2.672 3.6-1.6.48-3.292.72-5.073.72-.459 0-.805-.01-1.04-.032A6.84 6.84 0 016.614 7.84zM5.134 12c0-.043.002-.096.008-.16.005-.064.008-.117.008-.16.203.011.513.016.929.016 2.132 0 4.116-.294 5.95-.88.15.298.306.634.465 1.008-1.056.234-2.14.805-3.249 1.712-1.11.907-1.92 1.862-2.431 2.864-1.12-1.27-1.68-2.736-1.68-4.4zm6.672 6.672c-1.515 0-2.875-.47-4.08-1.407.48-.95 1.218-1.858 2.216-2.721.997-.864 1.986-1.402 2.968-1.616a23.553 23.553 0 011.248 5.296 6.533 6.533 0 01-2.352.448zm5.664-3.168a6.683 6.683 0 01-2.064 2.097 23.028 23.028 0 00-1.103-4.865c.745-.053 1.412-.08 2-.08.639 0 1.348.027 2.127.08a6.48 6.48 0 01-.96 2.768zm-.992-4c-.928 0-1.787.038-2.576.112-.167-.438-.349-.87-.544-1.296 1.653-.725 2.825-1.605 3.52-2.64.96 1.131 1.482 2.422 1.567 3.872a39.987 39.987 0 00-1.967-.048z" style="animation:dribbble 2s infinite both"/></svg>
