<svg width="1235" height="250" viewBox="0 0 1235 250" fill="none" xmlns="http://www.w3.org/2000/svg">
<rect x="6" y="6" width="1223" height="238" rx="119" fill="black"/>
<rect x="3" y="3" width="1229" height="244" rx="122" stroke="white" stroke-opacity="0.03" stroke-width="6"/>
<rect x="42" y="43" width="164" height="164" rx="82" fill="#A098FF" fill-opacity="0.27"/>
<path d="M166.5 103.75L128.288 128.09C126.992 128.843 125.519 129.24 124.019 129.24C122.52 129.24 121.047 128.843 119.75 128.09L81.5 103.75" stroke="#A098FF" stroke-width="8" stroke-linecap="round" stroke-linejoin="round"/>
<path d="M158 91H90C85.3056 91 81.5 94.8056 81.5 99.5V150.5C81.5 155.194 85.3056 159 90 159H158C162.695 159 166.5 155.194 166.5 150.5V99.5C166.5 94.8056 162.695 91 158 91Z" stroke="#A098FF" stroke-width="8" stroke-linecap="round" stroke-linejoin="round"/>
<path d="M272.296 156V104.208H263.83V94.995H289.726V104.208H281.26V156H272.296ZM305.499 156V94.995H314.463V120.227H321.435V94.995H330.399V156H321.435V129.44H314.463V156H305.499ZM348.649 156V94.995H369.15V104.208H357.613V120.642H365.913V129.606H357.613V146.787H369.15V156H348.649ZM385.717 156L394.93 94.995H405.886L415.099 156H406.384L404.724 143.55H396.092L394.432 156H385.717ZM397.337 134.088H403.479L400.906 113.587L400.657 110.35H400.159L399.91 113.587L397.337 134.088ZM428.642 156.581V147.783C429.029 147.838 429.32 147.866 429.514 147.866C430.759 147.866 431.727 147.479 432.419 146.704C433.11 145.902 433.456 144.767 433.456 143.301V94.995H442.42V144.712C442.42 147.34 441.936 149.54 440.968 151.31C440.027 153.081 438.644 154.409 436.818 155.294C434.992 156.18 432.778 156.623 430.178 156.623C429.929 156.623 429.68 156.623 429.431 156.623C429.182 156.623 428.919 156.609 428.642 156.581ZM460.673 156V94.995H472.044L476.941 126.618L477.356 129.855H477.522L477.937 126.618L482.834 94.995H494.205V156H485.905V115.081H485.407L485.075 117.654L479.763 156H475.115L469.803 117.654L469.471 115.081H468.973V156H460.673ZM510.629 156L519.842 94.995H530.798L540.011 156H531.296L529.636 143.55H521.004L519.344 156H510.629ZM522.249 134.088H528.391L525.818 113.587L525.569 110.35H525.071L524.822 113.587L522.249 134.088ZM556.376 156V94.995H565.34V147.7H577.209V156H556.376ZM592.474 156V94.995H601.438C606.806 94.995 610.762 96.489 613.307 99.477C615.853 102.437 617.125 106.809 617.125 112.591C617.125 116.022 616.517 118.996 615.299 121.513C614.11 124.003 612.657 125.829 610.942 126.991L617.042 156H608.078L603.015 130.27H601.438V156H592.474ZM601.438 121.97C603.098 121.97 604.412 121.61 605.381 120.891C606.349 120.144 607.041 119.093 607.456 117.737C607.871 116.381 608.078 114.777 608.078 112.923C608.078 110.018 607.594 107.791 606.626 106.241C605.685 104.664 603.956 103.876 601.438 103.876V121.97ZM631.893 156L641.106 94.995H652.062L661.275 156H652.56L650.9 143.55H642.268L640.608 156H631.893ZM643.513 134.088H649.655L647.082 113.587L646.833 110.35H646.335L646.086 113.587L643.513 134.088ZM675.565 156V146.372L689.592 103.876H677.557V94.995H699.303V103.876L685.027 147.119H699.303V156H675.565ZM713.654 156L722.867 94.995H733.823L743.036 156H734.321L732.661 143.55H724.029L722.369 156H713.654ZM725.274 134.088H731.416L728.843 113.587L728.594 110.35H728.096L727.847 113.587L725.274 134.088ZM784.634 160.648C782.116 160.648 780.069 160.109 778.492 159.03C776.915 157.951 775.725 156.775 774.923 155.502C774.508 155.806 773.885 156.069 773.055 156.291C772.253 156.54 771.409 156.664 770.524 156.664C767.978 156.664 765.848 156.083 764.133 154.921C762.417 153.759 761.131 152.182 760.273 150.19C759.415 148.198 758.987 145.957 758.987 143.467V107.528C758.987 105.038 759.457 102.797 760.398 100.805C761.366 98.813 762.749 97.236 764.548 96.074C766.346 94.912 768.476 94.331 770.939 94.331C773.429 94.331 775.559 94.912 777.33 96.074C779.128 97.236 780.497 98.813 781.438 100.805C782.406 102.797 782.891 105.038 782.891 107.528V143.467C782.891 145.099 782.669 146.607 782.227 147.99C781.812 149.346 781.327 150.356 780.774 151.02C781.134 151.601 781.646 152.057 782.31 152.389C782.974 152.721 783.748 152.929 784.634 153.012V160.648ZM770.939 147.949C772.045 147.949 772.82 147.506 773.263 146.621C773.705 145.708 773.927 144.657 773.927 143.467V107.528C773.927 106.394 773.705 105.37 773.263 104.457C772.82 103.516 772.045 103.046 770.939 103.046C769.86 103.046 769.085 103.516 768.615 104.457C768.172 105.37 767.951 106.394 767.951 107.528V143.467C767.951 144.657 768.186 145.708 768.656 146.621C769.126 147.506 769.887 147.949 770.939 147.949Z" fill="#A098FF"/>
<path d="M815.128 156.664C812.361 156.664 809.83 156.111 807.533 155.004C805.237 153.897 803.397 152.376 802.014 150.439C800.63 148.475 799.939 146.234 799.939 143.716V107.694C799.939 105.038 800.617 102.714 801.972 100.722C803.356 98.7023 805.195 97.1392 807.492 96.0325C809.788 94.8982 812.333 94.331 815.128 94.331C817.977 94.331 820.55 94.8982 822.847 96.0325C825.143 97.1668 826.955 98.7438 828.283 100.763C829.639 102.755 830.317 105.066 830.317 107.694V139.815H823.677L822.847 137.574C821.878 139.4 820.357 140.313 818.282 140.313C816.096 140.313 814.561 139.635 813.675 138.279C812.818 136.924 812.389 135.278 812.389 133.341V113.67C812.389 111.789 812.818 110.17 813.675 108.814C814.561 107.459 816.096 106.781 818.282 106.781C819.471 106.781 820.44 107.071 821.187 107.652C821.934 108.206 822.487 108.828 822.847 109.52V107.694C822.847 105.757 822.086 104.208 820.564 103.046C819.07 101.884 817.258 101.303 815.128 101.303C813.025 101.303 811.213 101.912 809.691 103.129C808.17 104.346 807.409 105.868 807.409 107.694V143.716C807.409 145.57 808.183 147.077 809.733 148.239C811.282 149.374 813.08 149.941 815.128 149.941C816.926 149.941 818.337 149.72 819.361 149.277C820.412 148.834 821.27 148.198 821.934 147.368L828.076 150.854C826.969 152.348 825.406 153.69 823.386 154.879C821.367 156.069 818.614 156.664 815.128 156.664ZM820.855 134.918C822.183 134.918 822.847 134.199 822.847 132.76V114.334C822.847 112.895 822.183 112.176 820.855 112.176C819.582 112.176 818.946 112.895 818.946 114.334V132.76C818.946 134.199 819.582 134.918 820.855 134.918ZM857.855 156.664C855.392 156.664 853.386 156.083 851.837 154.921C850.288 153.759 849.14 152.182 848.393 150.19C847.673 148.198 847.314 145.957 847.314 143.467V107.528C847.314 105.066 847.798 102.838 848.766 100.846C849.734 98.8545 851.118 97.2775 852.916 96.1155C854.714 94.9258 856.831 94.331 859.266 94.331C861.119 94.331 862.779 94.6768 864.246 95.3685C865.74 96.0325 866.998 96.9732 868.022 98.1905C869.073 99.4078 869.862 100.819 870.388 102.423C870.941 104 871.218 105.702 871.218 107.528V116.907H862.254V107.528C862.254 106.311 862.032 105.259 861.59 104.374C861.147 103.489 860.372 103.046 859.266 103.046C858.187 103.046 857.412 103.516 856.942 104.457C856.499 105.37 856.278 106.394 856.278 107.528V144.214C856.278 145.404 856.513 146.455 856.983 147.368C857.453 148.253 858.214 148.696 859.266 148.696C860.372 148.696 861.147 148.253 861.59 147.368C862.032 146.455 862.254 145.404 862.254 144.214V134.005H858.685V125.622H871.218V156H865.906L864.827 152.68C864.052 153.925 863.056 154.907 861.839 155.626C860.649 156.318 859.321 156.664 857.855 156.664ZM889.501 156V94.995H900.872L905.769 126.618L906.184 129.855H906.35L906.765 126.618L911.662 94.995H923.033V156H914.733V115.081H914.235L913.903 117.654L908.591 156H903.943L898.631 117.654L898.299 115.081H897.801V156H889.501ZM939.456 156L948.669 94.995H959.625L968.838 156H960.123L958.463 143.55H949.831L948.171 156H939.456ZM951.076 134.088H957.218L954.645 113.587L954.396 110.35H953.898L953.649 113.587L951.076 134.088ZM985.204 156V94.995H994.168V156H985.204ZM1012.47 156V94.995H1021.43V147.7H1033.3V156H1012.47ZM1047.4 156V146.787H1056.12V156H1047.4ZM1084.77 156.664C1082.23 156.664 1080.06 156.097 1078.26 154.962C1076.49 153.8 1075.13 152.223 1074.19 150.231C1073.28 148.239 1072.82 145.985 1072.82 143.467V107.528C1072.82 105.038 1073.29 102.797 1074.23 100.805C1075.2 98.813 1076.58 97.236 1078.38 96.074C1080.18 94.912 1082.31 94.331 1084.77 94.331C1086.63 94.331 1088.29 94.6768 1089.75 95.3685C1091.22 96.0602 1092.46 97.0147 1093.49 98.232C1094.54 99.4217 1095.34 100.819 1095.89 102.423C1096.45 104 1096.72 105.702 1096.72 107.528V115.911H1088.34V107.528C1088.34 106.255 1088.08 105.19 1087.55 104.332C1087.03 103.475 1086.16 103.046 1084.94 103.046C1083.83 103.046 1083.03 103.489 1082.53 104.374C1082.03 105.259 1081.78 106.311 1081.78 107.528V143.467C1081.78 144.684 1082.05 145.736 1082.57 146.621C1083.13 147.506 1083.91 147.949 1084.94 147.949C1086.18 147.949 1087.06 147.52 1087.55 146.662C1088.08 145.805 1088.34 144.74 1088.34 143.467V135.084H1096.72V143.467C1096.72 145.957 1096.24 148.198 1095.27 150.19C1094.3 152.182 1092.92 153.759 1091.12 154.921C1089.35 156.083 1087.23 156.664 1084.77 156.664ZM1126.14 156.664C1123.65 156.664 1121.51 156.083 1119.71 154.921C1117.94 153.759 1116.57 152.182 1115.6 150.19C1114.66 148.198 1114.19 145.957 1114.19 143.467V107.528C1114.19 105.01 1114.66 102.769 1115.6 100.805C1116.57 98.813 1117.94 97.236 1119.71 96.074C1121.51 94.912 1123.65 94.331 1126.14 94.331C1128.63 94.331 1130.76 94.912 1132.53 96.074C1134.33 97.236 1135.7 98.813 1136.64 100.805C1137.61 102.797 1138.09 105.038 1138.09 107.528V143.467C1138.09 145.957 1137.61 148.198 1136.64 150.19C1135.7 152.182 1134.33 153.759 1132.53 154.921C1130.76 156.083 1128.63 156.664 1126.14 156.664ZM1126.14 147.949C1127.25 147.949 1128.02 147.492 1128.46 146.579C1128.91 145.639 1129.13 144.601 1129.13 143.467V107.528C1129.13 106.394 1128.89 105.37 1128.42 104.457C1127.95 103.516 1127.19 103.046 1126.14 103.046C1125.12 103.046 1124.36 103.516 1123.86 104.457C1123.39 105.37 1123.15 106.394 1123.15 107.528V143.467C1123.15 144.601 1123.39 145.639 1123.86 146.579C1124.33 147.492 1125.09 147.949 1126.14 147.949ZM1155.97 156V94.995H1167.34L1172.24 126.618L1172.65 129.855H1172.82L1173.23 126.618L1178.13 94.995H1189.5V156H1181.2V115.081H1180.7L1180.37 117.654L1175.06 156H1170.41L1165.1 117.654L1164.77 115.081H1164.27V156H1155.97Z" fill="white"/>
</svg>
