<svg width="907" height="250" viewBox="0 0 907 250" fill="none" xmlns="http://www.w3.org/2000/svg">
<rect x="6" y="6" width="895" height="238" rx="119" fill="black"/>
<rect x="3" y="3" width="901" height="244" rx="122" stroke="white" stroke-opacity="0.03" stroke-width="6"/>
<rect x="50" y="43" width="164" height="164" rx="82" fill="#A098FF" fill-opacity="0.27"/>
<path d="M144.125 167.083V150.25C144.711 144.978 143.199 139.688 139.917 135.521C152.542 135.521 165.167 127.104 165.167 112.375C165.504 107.115 164.031 101.938 160.959 97.6459C162.137 92.8063 162.137 87.7563 160.959 82.9167C160.959 82.9167 156.75 82.9167 148.334 89.2292C137.224 87.125 125.777 87.125 114.667 89.2292C106.25 82.9167 102.042 82.9167 102.042 82.9167C100.779 87.7563 100.779 92.8063 102.042 97.6459C98.9777 101.921 97.4905 107.126 97.8336 112.375C97.8336 127.104 110.459 135.521 123.084 135.521C121.442 137.583 120.222 139.94 119.507 142.465C118.791 144.99 118.581 147.641 118.875 150.25V167.083" stroke="#A098FF" stroke-width="8" stroke-linecap="round" stroke-linejoin="round"/>
<path d="M118.874 150.25C99.8948 158.667 97.8327 141.833 89.416 141.833" stroke="#A098FF" stroke-width="8" stroke-linecap="round" stroke-linejoin="round"/>
<path d="M304.679 156.664C301.912 156.664 299.381 156.111 297.085 155.004C294.788 153.897 292.948 152.376 291.565 150.439C290.182 148.475 289.49 146.234 289.49 143.716V107.694C289.49 105.038 290.168 102.714 291.524 100.722C292.907 98.7023 294.747 97.1392 297.043 96.0325C299.339 94.8982 301.885 94.331 304.679 94.331C307.529 94.331 310.102 94.8982 312.398 96.0325C314.694 97.1668 316.507 98.7438 317.835 100.763C319.19 102.755 319.868 105.066 319.868 107.694V139.815H313.228L312.398 137.574C311.43 139.4 309.908 140.313 307.833 140.313C305.647 140.313 304.112 139.635 303.227 138.279C302.369 136.924 301.94 135.278 301.94 133.341V113.67C301.94 111.789 302.369 110.17 303.227 108.814C304.112 107.459 305.647 106.781 307.833 106.781C309.023 106.781 309.991 107.071 310.738 107.652C311.485 108.206 312.038 108.828 312.398 109.52V107.694C312.398 105.757 311.637 104.208 310.116 103.046C308.622 101.884 306.809 101.303 304.679 101.303C302.576 101.303 300.764 101.912 299.243 103.129C297.721 104.346 296.96 105.868 296.96 107.694V143.716C296.96 145.57 297.735 147.077 299.284 148.239C300.833 149.374 302.632 149.941 304.679 149.941C306.477 149.941 307.888 149.72 308.912 149.277C309.963 148.834 310.821 148.198 311.485 147.368L317.627 150.854C316.52 152.348 314.957 153.69 312.938 154.879C310.918 156.069 308.165 156.664 304.679 156.664ZM310.406 134.918C311.734 134.918 312.398 134.199 312.398 132.76V114.334C312.398 112.895 311.734 112.176 310.406 112.176C309.133 112.176 308.497 112.895 308.497 114.334V132.76C308.497 134.199 309.133 134.918 310.406 134.918ZM343.256 156V104.208H334.79V94.995H360.686V104.208H352.22V156H343.256ZM376.458 156V94.995H385.422V120.227H392.394V94.995H401.358V156H392.394V129.44H385.422V156H376.458ZM419.609 156V94.995H440.11V104.208H428.573V120.642H436.873V129.606H428.573V146.787H440.11V156H419.609ZM456.677 156L465.89 94.995H476.846L486.059 156H477.344L475.684 143.55H467.052L465.392 156H456.677ZM468.297 134.088H474.439L471.866 113.587L471.617 110.35H471.119L470.87 113.587L468.297 134.088ZM499.602 156.581V147.783C499.989 147.838 500.28 147.866 500.473 147.866C501.718 147.866 502.687 147.479 503.378 146.704C504.07 145.902 504.416 144.767 504.416 143.301V94.995H513.38V144.712C513.38 147.34 512.896 149.54 511.927 151.31C510.987 153.081 509.603 154.409 507.777 155.294C505.951 156.18 503.738 156.623 501.137 156.623C500.888 156.623 500.639 156.623 500.39 156.623C500.141 156.623 499.879 156.609 499.602 156.581ZM531.633 156V94.995H543.004L547.901 126.618L548.316 129.855H548.482L548.897 126.618L553.794 94.995H565.165V156H556.865V115.081H556.367L556.035 117.654L550.723 156H546.075L540.763 117.654L540.431 115.081H539.933V156H531.633ZM581.588 156L590.801 94.995H601.757L610.97 156H602.255L600.595 143.55H591.963L590.303 156H581.588ZM593.208 134.088H599.35L596.777 113.587L596.528 110.35H596.03L595.781 113.587L593.208 134.088ZM627.336 156V94.995H636.3V147.7H648.169V156H627.336ZM663.434 156V94.995H672.398C677.765 94.995 681.722 96.489 684.267 99.477C686.813 102.437 688.085 106.809 688.085 112.591C688.085 116.022 687.477 118.996 686.259 121.513C685.07 124.003 683.617 125.829 681.902 126.991L688.002 156H679.038L673.975 130.27H672.398V156H663.434ZM672.398 121.97C674.058 121.97 675.372 121.61 676.341 120.891C677.309 120.144 678.001 119.093 678.416 117.737C678.831 116.381 679.038 114.777 679.038 112.923C679.038 110.018 678.554 107.791 677.586 106.241C676.645 104.664 674.916 103.876 672.398 103.876V121.97ZM702.853 156L712.066 94.995H723.022L732.235 156H723.52L721.86 143.55H713.228L711.568 156H702.853ZM714.473 134.088H720.615L718.042 113.587L717.793 110.35H717.295L717.046 113.587L714.473 134.088ZM746.525 156V146.372L760.552 103.876H748.517V94.995H770.263V103.876L755.987 147.119H770.263V156H746.525ZM784.614 156L793.827 94.995H804.783L813.996 156H805.281L803.621 143.55H794.989L793.329 156H784.614ZM796.234 134.088H802.376L799.803 113.587L799.554 110.35H799.056L798.807 113.587L796.234 134.088ZM855.593 160.648C853.076 160.648 851.028 160.109 849.451 159.03C847.874 157.951 846.685 156.775 845.882 155.502C845.467 155.806 844.845 156.069 844.015 156.291C843.213 156.54 842.369 156.664 841.483 156.664C838.938 156.664 836.808 156.083 835.092 154.921C833.377 153.759 832.091 152.182 831.233 150.19C830.375 148.198 829.946 145.957 829.946 143.467V107.528C829.946 105.038 830.417 102.797 831.357 100.805C832.326 98.813 833.709 97.236 835.507 96.074C837.306 94.912 839.436 94.331 841.898 94.331C844.388 94.331 846.519 94.912 848.289 96.074C850.088 97.236 851.457 98.813 852.398 100.805C853.366 102.797 853.85 105.038 853.85 107.528V143.467C853.85 145.099 853.629 146.607 853.186 147.99C852.771 149.346 852.287 150.356 851.734 151.02C852.094 151.601 852.605 152.057 853.269 152.389C853.933 152.721 854.708 152.929 855.593 153.012V160.648ZM841.898 147.949C843.005 147.949 843.78 147.506 844.222 146.621C844.665 145.708 844.886 144.657 844.886 143.467V107.528C844.886 106.394 844.665 105.37 844.222 104.457C843.78 103.516 843.005 103.046 841.898 103.046C840.819 103.046 840.045 103.516 839.574 104.457C839.132 105.37 838.91 106.394 838.91 107.528V143.467C838.91 144.657 839.146 145.708 839.616 146.621C840.086 147.506 840.847 147.949 841.898 147.949Z" fill="#A098FF"/>
</svg>
