 <svg viewBox="0 0 24 24" width="34" height="34" fill="none" xmlns="http://www.w3.org/2000/svg"><style>@keyframes snowman-right{0%{transform:rotate(0)}to{transform:rotate(9deg)}}@keyframes snowman-left{0%{transform:rotate(0)}to{transform:rotate(8deg)}}</style><path fill-rule="evenodd" clip-rule="evenodd" d="M19.651 9.797a.5.5 0 10-.935-.354l-.72 1.905-2.768 1.756a.5.5 0 00.536.845l2.658-1.687h2.046a.5.5 0 100-1h-1.37l.553-1.465z" fill="#99ff00d1" style="animation:snowman-right .5s ease-in-out both alternate-reverse infinite;transform-origin:center"/><path fill-rule="evenodd" clip-rule="evenodd" d="M4.349 9.797a.5.5 0 01.935-.354l.72 1.905 2.768 1.756a.5.5 0 01-.536.845l-2.658-1.687H3.532a.5.5 0 010-1h1.37L4.35 9.797z" fill="#99ff00d1" style="animation:snowman-left .5s ease-in-out both alternate-reverse infinite;transform-origin:56% 57%"/><circle cx="12" cy="15.762" r="4" stroke="#99ff00d1" stroke-width="1.5"/><circle cx="12" cy="8.762" r="2.45" stroke="#99ff00d1" stroke-width=".9"/><rect x="10.75" y="7.909" width="1" height="1" rx=".5" fill="#99ff00d1"/><rect x="12.25" y="7.909" width="1" height="1" rx=".5" fill="#99ff00d1"/><path fill-rule="evenodd" clip-rule="evenodd" d="M10.5 4.5A.5.5 0 0111 4h2a.5.5 0 01.5.5v1c0 .037.004.074.012.109h-3.024A.504.504 0 0010.5 5.5v-1zm-.988 1.109A.502.502 0 019.5 5.5v-1A1.5 1.5 0 0111 3h2a1.5 1.5 0 011.5 1.5v1a.504.504 0 01-.012.109H16a.5.5 0 010 1H8a.5.5 0 010-1h1.512z" fill="#99ff00d1"/></svg>
