 <svg viewBox="0 0 24 24" xmlns="http://www.w3.org/2000/svg" width="24" height="24" fill="none"><style>@keyframes chrome{0%{transform:rotate(0)}to{transform:rotate(360deg)}}</style><g style="animation:chrome 1s cubic-bezier(.215,.61,.355,1) infinite both;transform-origin:54% center"><path stroke="#ffffff" stroke-width="1.5" d="M14.524 14.15l-4.047 4.736m.107-5.828l-2.94-6.03m5.096 2.355h6.962"/><path fill="#ffffff" d="M7.588 15.124a6.249 6.249 0 012.288-8.536l-.75-1.299a7.749 7.749 0 00-2.837 10.585l1.3-.75zm2.288-8.536a6.249 6.249 0 018.536 2.288l1.299-.75A7.749 7.749 0 009.126 5.289l.75 1.3zm8.536 2.288a6.249 6.249 0 01-2.288 8.536l.75 1.299a7.749 7.749 0 002.837-10.585l-1.3.75zm-2.288 8.536a6.249 6.249 0 01-8.536-2.288l-1.299.75a7.749 7.749 0 0010.585 2.837l-.75-1.3z"/><circle cx="13" cy="12" r="2.625" stroke="#ffffff" stroke-width="1.5" transform="rotate(150 13 12)"/></g></svg>
